<svg width="150" viewBox="0 0 151 41" fill="none" xmlns="http://www.w3.org/2000/svg" aria-hidden="true"><g id="Group 86"><g id="tapestries"><path id="Vector" d="M146.266 36.2508C145.021 36.2508 143.933 35.9574 143.003 35.3706C142.215 34.8533 141.638 34.1823 141.274 33.3575C141.172 33.1263 141.285 32.8627 141.513 32.7534L142.758 32.1562C143.01 32.0352 143.31 32.147 143.455 32.3866C143.725 32.8341 144.061 33.199 144.463 33.4815C145.007 33.8536 145.608 34.0397 146.266 34.0397C146.781 34.0397 147.189 33.9252 147.49 33.6962C147.79 33.4672 147.94 33.1667 147.94 32.7946C147.94 32.5656 147.876 32.3795 147.747 32.2364C147.633 32.079 147.468 31.9502 147.253 31.85C147.053 31.7355 146.831 31.6425 146.588 31.5709L144.677 31.0342C143.69 30.748 142.939 30.3115 142.423 29.7247C141.922 29.1379 141.672 28.4438 141.672 27.6424C141.672 26.9268 141.851 26.3042 142.209 25.7747C142.581 25.2309 143.089 24.8087 143.733 24.5081C144.391 24.2076 145.142 24.0573 145.987 24.0573C147.089 24.0573 148.062 24.3221 148.906 24.8516C149.622 25.3004 150.163 25.9035 150.529 26.6607C150.642 26.895 150.528 27.1694 150.293 27.2801L149.052 27.8633C148.788 27.9873 148.479 27.8563 148.324 27.6096C148.129 27.2998 147.872 27.0388 147.554 26.8266C147.082 26.5118 146.552 26.3543 145.965 26.3543C145.493 26.3543 145.121 26.4617 144.849 26.6763C144.577 26.891 144.441 27.1701 144.441 27.5136C144.441 27.7282 144.498 27.9143 144.613 28.0717C144.727 28.2291 144.885 28.358 145.085 28.4581C145.3 28.5583 145.543 28.6513 145.815 28.7372L147.683 29.2954C148.642 29.5816 149.379 30.0109 149.894 30.5834C150.423 31.1559 150.688 31.8571 150.688 32.6872C150.688 33.3885 150.502 34.011 150.13 34.5549C149.758 35.0844 149.243 35.4994 148.584 35.8C147.926 36.1005 147.153 36.2508 146.266 36.2508Z" fill="#353D44"></path><path id="Vector_2" d="M133.143 36.2508C131.941 36.2508 130.889 35.9789 129.987 35.435C129.085 34.8912 128.384 34.1542 127.883 33.2239C127.382 32.2936 127.132 31.2632 127.132 30.1326C127.132 28.959 127.382 27.9214 127.883 27.0198C128.398 26.1039 129.093 25.3811 129.966 24.8516C130.853 24.3221 131.84 24.0573 132.928 24.0573C133.844 24.0573 134.645 24.2076 135.332 24.5081C136.034 24.8087 136.628 25.2237 137.114 25.7532C137.601 26.2828 137.973 26.891 138.23 27.578C138.488 28.2506 138.617 28.9805 138.617 29.7676C138.617 29.968 138.603 30.1755 138.574 30.3902C138.569 30.4667 138.561 30.5397 138.55 30.6089C138.519 30.8168 138.327 30.9484 138.116 30.9484H129.95C129.674 30.9484 129.45 30.7245 129.45 30.4484V29.3016C129.45 29.0255 129.674 28.8016 129.95 28.8016H135.99C136.276 28.8016 136.399 29.1651 136.171 29.338C135.952 29.5036 135.626 29.3073 135.622 29.0332C135.618 28.6808 135.558 28.3532 135.44 28.0503C135.254 27.535 134.939 27.1272 134.495 26.8266C134.066 26.5261 133.543 26.3758 132.928 26.3758C132.341 26.3758 131.819 26.5261 131.361 26.8266C130.903 27.1128 130.552 27.5422 130.309 28.1147C130.084 28.664 129.997 29.3312 130.049 30.1162C130.05 30.1413 130.05 30.1667 130.049 30.1919C129.997 30.8921 130.091 31.5164 130.33 32.0647C130.588 32.6085 130.96 33.0307 131.447 33.3312C131.948 33.6318 132.52 33.7821 133.164 33.7821C133.808 33.7821 134.352 33.6461 134.796 33.3742C135.114 33.185 135.385 32.9507 135.606 32.6715C135.771 32.4637 136.055 32.3707 136.293 32.4875L137.725 33.1897C137.961 33.3056 138.07 33.587 137.941 33.8163C137.722 34.2052 137.432 34.5587 137.071 34.8769C136.585 35.3062 136.005 35.6426 135.332 35.8859C134.674 36.1292 133.944 36.2508 133.143 36.2508Z" fill="#353D44"></path><path id="Vector_3" d="M121.622 35.9934C121.346 35.9934 121.122 35.7696 121.122 35.4934V24.8151C121.122 24.539 121.346 24.3151 121.622 24.3151H123.434C123.71 24.3151 123.934 24.539 123.934 24.8151V35.4934C123.934 35.7696 123.71 35.9934 123.434 35.9934H121.622ZM121.622 23.0056C121.346 23.0056 121.122 22.7818 121.122 22.5056V20.5002C121.122 20.224 121.346 20.0002 121.622 20.0002H123.434C123.71 20.0002 123.934 20.224 123.934 20.5002V22.5056C123.934 22.7818 123.71 23.0056 123.434 23.0056H121.622Z" fill="#353D44"></path><path id="Vector_4" d="M112.52 35.9933C112.243 35.9933 112.02 35.7694 112.02 35.4933V24.815C112.02 24.5389 112.243 24.315 112.52 24.315H114.16C114.436 24.315 114.66 24.5389 114.66 24.815V26.5147C114.66 26.6211 114.518 26.6578 114.467 26.5648C114.453 26.5401 114.45 26.5108 114.459 26.4839C114.731 25.6335 115.149 25.0393 115.712 24.7014C116.299 24.358 117 24.1862 117.816 24.1862H118.003C118.279 24.1862 118.503 24.4101 118.503 24.6862V26.1764C118.503 26.4526 118.279 26.6764 118.003 26.6764H117.494C116.692 26.6764 116.048 26.9269 115.562 27.4278C115.075 27.9144 114.832 28.6014 114.832 29.4887V35.4933C114.832 35.7694 114.608 35.9933 114.332 35.9933H112.52Z" fill="#353D44"></path><path id="Vector_5" d="M107.402 36.1223C106.085 36.1223 105.062 35.7645 104.332 35.0489C103.617 34.319 103.259 33.2957 103.259 31.9791V27.3269C103.259 27.0507 103.035 26.8269 102.759 26.8269H101.741C101.465 26.8269 101.241 26.603 101.241 26.3269V24.5299C101.241 24.4113 101.337 24.3152 101.456 24.3152C102.028 24.3152 102.472 24.1649 102.787 23.8644C103.101 23.5638 103.259 23.1273 103.259 22.5549V22.1532C103.259 21.8771 103.483 21.6532 103.759 21.6532H105.571C105.847 21.6532 106.071 21.8771 106.071 22.1532V23.8152C106.071 24.0913 106.295 24.3152 106.571 24.3152H108.255C108.531 24.3152 108.755 24.539 108.755 24.8152V26.3269C108.755 26.603 108.531 26.8269 108.255 26.8269H106.571C106.295 26.8269 106.071 27.0507 106.071 27.3269V31.8288C106.071 32.2152 106.136 32.5444 106.264 32.8163C106.407 33.0882 106.622 33.2957 106.908 33.4388C107.209 33.582 107.588 33.6535 108.046 33.6535C108.146 33.6535 108.261 33.6464 108.39 33.632C108.607 33.6103 108.798 33.7805 108.798 33.9993V35.5598C108.798 35.8086 108.615 36.0199 108.368 36.0496C108.285 36.0595 108.2 36.0694 108.111 36.0793C107.853 36.108 107.617 36.1223 107.402 36.1223Z" fill="#353D44"></path><path id="Vector_6" d="M94.4212 36.2508C93.1761 36.2508 92.0884 35.9574 91.1582 35.3706C90.3699 34.8533 89.7936 34.1823 89.4293 33.3575C89.3272 33.1263 89.4404 32.8627 89.6683 32.7534L90.9134 32.1562C91.1657 32.0352 91.4653 32.147 91.6099 32.3866C91.88 32.8341 92.216 33.199 92.618 33.4815C93.1618 33.8536 93.7629 34.0397 94.4212 34.0397C94.9364 34.0397 95.3443 33.9252 95.6449 33.6962C95.9454 33.4672 96.0957 33.1667 96.0957 32.7946C96.0957 32.5656 96.0313 32.3795 95.9025 32.2364C95.788 32.079 95.6234 31.9502 95.4087 31.85C95.2084 31.7355 94.9865 31.6425 94.7432 31.5709L92.8326 31.0342C91.8451 30.748 91.0938 30.3115 90.5786 29.7247C90.0776 29.1379 89.8272 28.4438 89.8272 27.6424C89.8272 26.9268 90.0061 26.3042 90.3639 25.7747C90.736 25.2309 91.244 24.8087 91.8881 24.5081C92.5464 24.2076 93.2978 24.0573 94.1421 24.0573C95.2441 24.0573 96.2173 24.3221 97.0617 24.8516C97.7774 25.3004 98.3183 25.9035 98.6844 26.6607C98.7977 26.895 98.6837 27.1694 98.4482 27.2801L97.2073 27.8633C96.9436 27.9873 96.6341 27.8563 96.479 27.6096C96.2842 27.2998 96.0276 27.0388 95.7093 26.8266C95.237 26.5118 94.7075 26.3543 94.1207 26.3543C93.6484 26.3543 93.2763 26.4617 93.0044 26.6763C92.7325 26.891 92.5965 27.1701 92.5965 27.5136C92.5965 27.7282 92.6537 27.9143 92.7682 28.0717C92.8827 28.2291 93.0402 28.358 93.2405 28.4581C93.4552 28.5583 93.6985 28.6513 93.9704 28.7372L95.8381 29.2954C96.797 29.5816 97.534 30.0109 98.0492 30.5834C98.5787 31.1559 98.8435 31.8571 98.8435 32.6872C98.8435 33.3885 98.6575 34.011 98.2854 34.5549C97.9133 35.0844 97.398 35.4994 96.7397 35.8C96.0814 36.1005 95.3085 36.2508 94.4212 36.2508Z" fill="#353D44"></path><path id="Vector_7" d="M81.2982 36.2508C80.0961 36.2508 79.0442 35.9789 78.1425 35.435C77.2409 34.8912 76.5396 34.1542 76.0387 33.2239C75.5378 32.2936 75.2874 31.2632 75.2874 30.1326C75.2874 28.959 75.5378 27.9214 76.0387 27.0198C76.5539 26.1039 77.248 25.3811 78.1211 24.8516C79.0084 24.3221 79.9959 24.0573 81.0836 24.0573C81.9995 24.0573 82.801 24.2076 83.4879 24.5081C84.1892 24.8087 84.7831 25.2237 85.2697 25.7532C85.7563 26.2828 86.1284 26.891 86.386 27.578C86.6436 28.2506 86.7724 28.9805 86.7724 29.7676C86.7724 29.968 86.7581 30.1755 86.7295 30.3902C86.7244 30.4667 86.7166 30.5397 86.706 30.6089C86.6743 30.8168 86.4822 30.9484 86.2719 30.9484H78.1058C77.8297 30.9484 77.6058 30.7245 77.6058 30.4484V29.3016C77.6058 29.0255 77.8297 28.8016 78.1058 28.8016H84.1457C84.4318 28.8016 84.554 29.1651 84.326 29.338C84.1076 29.5036 83.7811 29.3073 83.778 29.0332C83.774 28.6808 83.713 28.3532 83.5952 28.0503C83.4092 27.535 83.0943 27.1272 82.6507 26.8266C82.2213 26.5261 81.699 26.3758 81.0836 26.3758C80.4968 26.3758 79.9744 26.5261 79.5164 26.8266C79.0585 27.1128 78.7078 27.5422 78.4645 28.1147C78.2392 28.664 78.1524 29.3312 78.2043 30.1162C78.206 30.1413 78.2059 30.1667 78.204 30.1919C78.153 30.8921 78.247 31.5164 78.486 32.0647C78.7436 32.6085 79.1157 33.0307 79.6023 33.3312C80.1032 33.6318 80.6757 33.7821 81.3197 33.7821C81.9637 33.7821 82.5076 33.6461 82.9512 33.3742C83.2699 33.185 83.54 32.9507 83.7617 32.6715C83.9266 32.4637 84.2108 32.3707 84.4489 32.4875L85.8803 33.1897C86.1166 33.3056 86.2256 33.587 86.0964 33.8163C85.8772 34.2052 85.5874 34.5587 85.2268 34.8769C84.7402 35.3062 84.1606 35.6426 83.4879 35.8859C82.8296 36.1292 82.0997 36.2508 81.2982 36.2508Z" fill="#353D44"></path><path id="Vector_8" d="M60.7627 40.2867C60.4866 40.2867 60.2627 40.0628 60.2627 39.7867V24.8149C60.2627 24.5388 60.4866 24.3149 60.7627 24.3149H62.4973C62.7215 24.3149 62.9032 24.4966 62.9032 24.7208V26.064C62.9032 26.1945 62.7249 26.2323 62.6719 26.113C62.6555 26.076 62.6586 26.0332 62.6808 25.9993C63.078 25.396 63.6101 24.9275 64.2771 24.594C64.9641 24.2362 65.7584 24.0573 66.66 24.0573C67.762 24.0573 68.7566 24.3292 69.644 24.8731C70.5313 25.4169 71.2326 26.1468 71.7478 27.0628C72.2773 27.9787 72.5421 29.0091 72.5421 30.1541C72.5421 31.2847 72.2845 32.3151 71.7692 33.2454C71.254 34.1756 70.5527 34.9127 69.6654 35.4565C68.7781 35.986 67.7691 36.2508 66.6385 36.2508C65.7941 36.2508 65.0142 36.0862 64.2986 35.7571C63.6431 35.436 63.1127 34.9899 62.7073 34.4188C62.6565 34.3473 62.6615 34.2509 62.7166 34.1827C62.836 34.0349 63.0749 34.1193 63.0749 34.3093V39.7867C63.0749 40.0628 62.8511 40.2867 62.5749 40.2867H60.7627ZM66.3165 33.6747C66.9605 33.6747 67.533 33.5244 68.0339 33.2239C68.5348 32.9234 68.9212 32.5083 69.1931 31.9788C69.4794 31.4493 69.6225 30.841 69.6225 30.1541C69.6225 29.4671 69.4794 28.866 69.1931 28.3508C68.9212 27.8213 68.5348 27.4062 68.0339 27.1057C67.533 26.7908 66.9605 26.6334 66.3165 26.6334C65.7011 26.6334 65.143 26.7837 64.6421 27.0842C64.1555 27.3848 63.769 27.807 63.4828 28.3508C63.2109 28.8803 63.0749 29.4814 63.0749 30.1541C63.0749 30.841 63.2109 31.4493 63.4828 31.9788C63.769 32.5083 64.1555 32.9234 64.6421 33.2239C65.143 33.5244 65.7011 33.6747 66.3165 33.6747Z" fill="#353D44"></path><path id="Vector_9" d="M50.2788 36.2508C49.4631 36.2508 48.7546 36.1149 48.1535 35.8429C47.5524 35.571 47.0873 35.1846 46.7582 34.6837C46.429 34.1685 46.2644 33.5745 46.2644 32.9019C46.2644 32.2579 46.4075 31.6854 46.6938 31.1845C46.98 30.6693 47.4236 30.2399 48.0247 29.8965C48.6258 29.553 49.3843 29.3097 50.3003 29.1666L53.5411 28.6386C53.8453 28.589 54.1215 28.8238 54.1215 29.1321V30.2685C54.1215 30.5124 53.9456 30.7206 53.7052 30.7615L50.837 31.2489C50.2788 31.3491 49.8638 31.528 49.5919 31.7856C49.3199 32.0432 49.184 32.3795 49.184 32.7946C49.184 33.1953 49.3342 33.5173 49.6348 33.7606C49.9496 33.9896 50.3361 34.1041 50.794 34.1041C51.3808 34.1041 51.896 33.9824 52.3397 33.7391C52.7977 33.4815 53.1483 33.1309 53.3916 32.6872C53.6492 32.2436 53.778 31.757 53.778 31.2274V28.222C53.778 27.7211 53.5776 27.306 53.1769 26.9769C52.7905 26.6334 52.2753 26.4617 51.6313 26.4617C51.0302 26.4617 50.4935 26.6262 50.0212 26.9554C49.7098 27.1695 49.4546 27.4333 49.2557 27.7466C49.1006 27.9909 48.7915 28.1147 48.5312 27.9882L47.1236 27.3042C46.892 27.1916 46.7807 26.9196 46.8963 26.6895C47.1179 26.2482 47.4154 25.8574 47.7886 25.5171C48.2895 25.0591 48.8763 24.7013 49.5489 24.4437C50.2216 24.1861 50.9515 24.0573 51.7386 24.0573C52.6975 24.0573 53.5419 24.2362 54.2718 24.594C55.0016 24.9375 55.567 25.4241 55.9677 26.0538C56.3827 26.6692 56.5902 27.3919 56.5902 28.222V35.4932C56.5902 35.7693 56.3664 35.9932 56.0902 35.9932H54.4283C54.1521 35.9932 53.9283 35.7693 53.9283 35.4932V34.1933C53.9283 34.0826 54.0139 33.9906 54.1244 33.9827C54.2949 33.9705 54.4065 34.1544 54.3079 34.294C54.0574 34.6489 53.7735 34.9576 53.456 35.2204C53.041 35.5495 52.5687 35.8071 52.0391 35.9932C51.5096 36.1649 50.9228 36.2508 50.2788 36.2508Z" fill="#353D44"></path><path id="Vector_10" d="M42.1611 36.1223C40.8445 36.1223 39.8212 35.7645 39.0913 35.0489C38.3757 34.319 38.0179 33.2957 38.0179 31.9791V27.3269C38.0179 27.0507 37.7941 26.8269 37.5179 26.8269H36.5C36.2239 26.8269 36 26.603 36 26.3269V24.5299C36 24.4113 36.0961 24.3152 36.2147 24.3152C36.7871 24.3152 37.2308 24.1649 37.5457 23.8644C37.8605 23.5638 38.0179 23.1273 38.0179 22.5549V22.1532C38.0179 21.8771 38.2418 21.6532 38.5179 21.6532H40.3302C40.6063 21.6532 40.8302 21.8771 40.8302 22.1532V23.8152C40.8302 24.0913 41.054 24.3152 41.3302 24.3152H43.0136C43.2897 24.3152 43.5136 24.539 43.5136 24.8152V26.3269C43.5136 26.603 43.2897 26.8269 43.0136 26.8269H41.3302C41.054 26.8269 40.8302 27.0507 40.8302 27.3269V31.8288C40.8302 32.2152 40.8946 32.5444 41.0234 32.8163C41.1665 33.0882 41.3812 33.2957 41.6674 33.4388C41.9679 33.582 42.3472 33.6535 42.8052 33.6535C42.9054 33.6535 43.0198 33.6464 43.1487 33.632C43.3664 33.6103 43.5565 33.7805 43.5565 33.9993V35.5598C43.5565 35.8086 43.3736 36.0199 43.1266 36.0496C43.0443 36.0595 42.9587 36.0694 42.8696 36.0793C42.612 36.108 42.3758 36.1223 42.1611 36.1223Z" fill="#353D44"></path></g><g id="Logo"><g id="Group 84"><path id="Vector_11" d="M15.4962 36.7695H12.6111C12.207 36.7695 11.8796 36.4281 11.8796 36.0067V16.3926C11.8796 15.9712 11.5522 15.6298 11.1481 15.6298H1.60042C1.1963 15.6298 0.868896 15.2884 0.868896 14.867V0.848156C0.868896 0.426758 1.1963 0.0853577 1.60042 0.0853577H37.7056C38.1097 0.0853577 38.4371 0.426758 38.4371 0.848156V14.867C38.4371 15.2884 38.1097 15.6298 37.7056 15.6298H27.4243C27.0201 15.6298 26.6927 15.9712 26.6927 16.3926V24.8757C26.6927 25.2971 26.3653 25.6385 25.9612 25.6385H23.0762C22.6721 25.6385 22.3446 25.2971 22.3446 24.8757V11.8586C22.3446 11.4372 22.6721 11.0958 23.0762 11.0958H33.3575C33.7616 11.0958 34.0891 10.7544 34.0891 10.333V5.38325C34.0891 4.96186 33.7616 4.62046 33.3575 4.62046H5.94852C5.5444 4.62046 5.21699 4.96186 5.21699 5.38325V10.333C5.21699 10.7544 5.5444 11.0958 5.94852 11.0958H15.4962C15.9003 11.0958 16.2277 11.4372 16.2277 11.8586V36.0067C16.2277 36.4281 15.9003 36.7695 15.4962 36.7695Z" fill="#1349ED"></path><path id="Vector_12" d="M27.4599 24.7191H21.4013C21.0771 24.7191 20.8978 25.1113 21.1009 25.3749L24.1308 29.279C24.2075 29.3782 24.3188 29.4278 24.4311 29.4278C24.5435 29.4278 24.6537 29.3782 24.7305 29.279L27.7603 25.3749C27.9645 25.1124 27.7851 24.7191 27.4599 24.7191Z" fill="#1349ED"></path></g></g></g></svg>